<svg xmlns="http://www.w3.org/2000/svg" viewBox="0 0 25 20" fill="none">
  <!-- Stylised grass/plant icon matching the Figma design -->
  <path d="M12.5 18 C12.5 18 12.5 10 6 6 C9 8 10.5 12 10.5 12 C10.5 12 8 7 3 5 C7 7 9.5 12 9.5 15 L12.5 18Z" fill="white"/>
  <path d="M12.5 18 C12.5 18 12.5 10 19 6 C16 8 14.5 12 14.5 12 C14.5 12 17 7 22 5 C18 7 15.5 12 15.5 15 L12.5 18Z" fill="white"/>
  <line x1="12.5" y1="18" x2="12.5" y2="20" stroke="white" stroke-width="1.5" stroke-linecap="round"/>
</svg>
